<svg width="142" height="8" viewBox="0 0 142 8" fill="none" xmlns="http://www.w3.org/2000/svg">
<path d="M0.646447 3.64645C0.451184 3.84171 0.451184 4.15829 0.646447 4.35355L3.82843 7.53553C4.02369 7.7308 4.34027 7.7308 4.53553 7.53553C4.7308 7.34027 4.7308 7.02369 4.53553 6.82843L1.70711 4L4.53553 1.17157C4.7308 0.976311 4.7308 0.659728 4.53553 0.464466C4.34027 0.269204 4.02369 0.269204 3.82843 0.464466L0.646447 3.64645ZM1 4.5H61V3.5H1V4.5Z" fill="#FB0223"/>
<path d="M141.354 4.35355C141.549 4.15829 141.549 3.84171 141.354 3.64645L138.172 0.464466C137.976 0.269204 137.66 0.269204 137.464 0.464466C137.269 0.659728 137.269 0.976311 137.464 1.17157L140.293 4L137.464 6.82843C137.269 7.02369 137.269 7.34027 137.464 7.53553C137.66 7.7308 137.976 7.7308 138.172 7.53553L141.354 4.35355ZM81 4.5H141V3.5H81V4.5Z" fill="#FB0223"/>
</svg>
