<svg width="171" height="22" viewBox="0 0 171 22" fill="none" xmlns="http://www.w3.org/2000/svg">
<path d="M170.354 10.8536C170.549 10.6583 170.549 10.3417 170.354 10.1464L167.172 6.96447C166.976 6.7692 166.66 6.7692 166.464 6.96447C166.269 7.15973 166.269 7.47631 166.464 7.67157L169.293 10.5L166.464 13.3284C166.269 13.5237 166.269 13.8403 166.464 14.0355C166.66 14.2308 166.976 14.2308 167.172 14.0355L170.354 10.8536ZM110 11H170V10H110V11Z" fill="#FB0223"/>
<path d="M11.6895 9.52246V10.9697C11.6895 11.916 11.5658 12.7726 11.3184 13.5396C11.0771 14.3003 10.7246 14.9528 10.2607 15.4971C9.80306 16.0413 9.2526 16.4588 8.60938 16.7495C7.96615 17.0402 7.24251 17.1855 6.43848 17.1855C5.65299 17.1855 4.93555 17.0402 4.28613 16.7495C3.6429 16.4588 3.08936 16.0413 2.62549 15.4971C2.16162 14.9528 1.8029 14.3003 1.54932 13.5396C1.29574 12.7726 1.16895 11.916 1.16895 10.9697V9.52246C1.16895 8.57617 1.29264 7.72266 1.54004 6.96191C1.79362 6.19499 2.15234 5.53939 2.61621 4.99512C3.08008 4.45085 3.63363 4.03337 4.27686 3.74268C4.92008 3.45199 5.63444 3.30664 6.41992 3.30664C7.22396 3.30664 7.94759 3.45199 8.59082 3.74268C9.23405 4.03337 9.7876 4.45085 10.2515 4.99512C10.7153 5.53939 11.071 6.19499 11.3184 6.96191C11.5658 7.72266 11.6895 8.57617 11.6895 9.52246ZM10.5576 10.9697V9.50391C10.5576 8.70605 10.4648 7.98861 10.2793 7.35156C10.0999 6.71452 9.83089 6.17025 9.47217 5.71875C9.11963 5.26725 8.68669 4.9209 8.17334 4.67969C7.65999 4.43848 7.07552 4.31787 6.41992 4.31787C5.78288 4.31787 5.21077 4.43848 4.70361 4.67969C4.19645 4.9209 3.76351 5.26725 3.40479 5.71875C3.05225 6.17025 2.78011 6.71452 2.58838 7.35156C2.40283 7.98861 2.31006 8.70605 2.31006 9.50391V10.9697C2.31006 11.7738 2.40283 12.4974 2.58838 13.1406C2.78011 13.7777 3.05534 14.325 3.41406 14.7827C3.77279 15.2342 4.20573 15.5806 4.71289 15.8218C5.22624 16.063 5.80143 16.1836 6.43848 16.1836C7.10026 16.1836 7.68473 16.063 8.19189 15.8218C8.69906 15.5806 9.12891 15.2342 9.48145 14.7827C9.83398 14.325 10.0999 13.7777 10.2793 13.1406C10.4648 12.4974 10.5576 11.7738 10.5576 10.9697ZM16.2168 17H15.1128V5.71875C15.1128 5.03223 15.2303 4.45394 15.4653 3.98389C15.7065 3.51383 16.0467 3.1582 16.4858 2.91699C16.9312 2.67578 17.46 2.55518 18.0723 2.55518C18.264 2.55518 18.4619 2.56755 18.666 2.59229C18.8701 2.61084 19.068 2.65104 19.2598 2.71289L19.1763 3.6499C19.0216 3.60661 18.8639 3.57878 18.7031 3.56641C18.5485 3.54785 18.366 3.53857 18.1558 3.53857C17.7537 3.53857 17.4074 3.62516 17.1167 3.79834C16.826 3.96533 16.6034 4.20964 16.4487 4.53125C16.2941 4.85286 16.2168 5.2487 16.2168 5.71875V17ZM19.1299 6.96191V7.87109H13.4521V6.96191H19.1299ZM21.6069 17H20.5029V5.9043C20.5029 5.18066 20.6359 4.57145 20.9019 4.07666C21.1678 3.57568 21.5482 3.1984 22.043 2.94482C22.5439 2.68506 23.1377 2.55518 23.8242 2.55518C24.2448 2.55518 24.6685 2.60156 25.0952 2.69434C25.522 2.78711 25.9518 2.92318 26.3848 3.10254L26.1992 4.06738C25.8776 3.92513 25.5343 3.80762 25.1694 3.71484C24.8107 3.62207 24.387 3.57568 23.8984 3.57568C23.1439 3.57568 22.5718 3.7736 22.1821 4.16943C21.7987 4.56527 21.6069 5.14355 21.6069 5.9043V17ZM23.9541 6.96191V7.87109H18.833V6.96191H23.9541ZM26.9878 6.96191V17H25.8838V6.96191H26.9878ZM33.751 16.23C34.221 16.23 34.6602 16.1434 35.0684 15.9702C35.4827 15.7909 35.8229 15.528 36.0889 15.1816C36.361 14.8291 36.5156 14.3993 36.5527 13.8921H37.6104C37.5794 14.5291 37.3846 15.0981 37.0259 15.5991C36.6733 16.0939 36.2095 16.4836 35.6343 16.7681C35.0653 17.0464 34.4375 17.1855 33.751 17.1855C33.0521 17.1855 32.4336 17.0588 31.8955 16.8052C31.3636 16.5516 30.9183 16.1991 30.5596 15.7476C30.2008 15.2899 29.9287 14.758 29.7432 14.1519C29.5638 13.5396 29.4741 12.8809 29.4741 12.1758V11.7861C29.4741 11.0811 29.5638 10.4255 29.7432 9.81934C29.9287 9.20703 30.2008 8.67513 30.5596 8.22363C30.9183 7.76595 31.3636 7.41032 31.8955 7.15674C32.4274 6.90316 33.0428 6.77637 33.7417 6.77637C34.4591 6.77637 35.1024 6.92171 35.6714 7.2124C36.2466 7.50309 36.7043 7.91439 37.0444 8.44629C37.3908 8.97819 37.5794 9.60905 37.6104 10.3389H36.5527C36.5218 9.80078 36.3796 9.33691 36.126 8.94727C35.8724 8.55762 35.5384 8.25765 35.124 8.04736C34.7096 7.83708 34.2489 7.73193 33.7417 7.73193C33.1727 7.73193 32.6872 7.84326 32.2852 8.06592C31.8831 8.28239 31.5553 8.58236 31.3018 8.96582C31.0544 9.3431 30.8719 9.77604 30.7544 10.2646C30.6369 10.7471 30.5781 11.2542 30.5781 11.7861V12.1758C30.5781 12.7139 30.6338 13.2272 30.7451 13.7158C30.8626 14.1982 31.0451 14.6281 31.2925 15.0054C31.5461 15.3826 31.8739 15.6826 32.2759 15.9053C32.6841 16.1217 33.1758 16.23 33.751 16.23ZM41.0801 6.96191V17H39.9761V6.96191H41.0801ZM39.7812 4.05811C39.7812 3.84782 39.8462 3.67155 39.9761 3.5293C40.1121 3.38086 40.2977 3.30664 40.5327 3.30664C40.7677 3.30664 40.9533 3.38086 41.0894 3.5293C41.2316 3.67155 41.3027 3.84782 41.3027 4.05811C41.3027 4.26221 41.2316 4.43848 41.0894 4.58691C40.9533 4.72917 40.7677 4.80029 40.5327 4.80029C40.2977 4.80029 40.1121 4.72917 39.9761 4.58691C39.8462 4.43848 39.7812 4.26221 39.7812 4.05811ZM50.2183 15.2002V10.0234C50.2183 9.5472 50.1193 9.1359 49.9214 8.78955C49.7235 8.4432 49.4328 8.17725 49.0493 7.9917C48.6659 7.80615 48.1927 7.71338 47.6299 7.71338C47.1104 7.71338 46.6465 7.80615 46.2383 7.9917C45.8363 8.17106 45.5177 8.41536 45.2827 8.72461C45.0539 9.02767 44.9395 9.36475 44.9395 9.73584L43.8262 9.72656C43.8262 9.34928 43.9189 8.98438 44.1045 8.63184C44.29 8.2793 44.5529 7.96387 44.8931 7.68555C45.2332 7.40723 45.6383 7.18766 46.1084 7.02686C46.5846 6.85986 47.1073 6.77637 47.6763 6.77637C48.3937 6.77637 49.0246 6.89697 49.5688 7.13818C50.1193 7.37939 50.5492 7.74121 50.8584 8.22363C51.1676 8.70605 51.3223 9.31217 51.3223 10.042V14.894C51.3223 15.2404 51.347 15.5991 51.3965 15.9702C51.4521 16.3413 51.5295 16.6475 51.6284 16.8887V17H50.4502C50.376 16.7773 50.3172 16.499 50.2739 16.165C50.2368 15.8249 50.2183 15.5033 50.2183 15.2002ZM50.478 11.1553L50.4966 12.0088H48.3164C47.7474 12.0088 47.2371 12.0614 46.7856 12.1665C46.3403 12.2655 45.9631 12.4139 45.6538 12.6118C45.3446 12.8035 45.1064 13.0355 44.9395 13.3076C44.7786 13.5798 44.6982 13.889 44.6982 14.2354C44.6982 14.5941 44.7879 14.9219 44.9673 15.2188C45.1528 15.5156 45.4126 15.7537 45.7466 15.9331C46.0868 16.1063 46.4888 16.1929 46.9526 16.1929C47.5711 16.1929 48.1154 16.0785 48.5854 15.8496C49.0617 15.6208 49.4544 15.3208 49.7637 14.9497C50.0729 14.5786 50.2801 14.1735 50.3853 13.7344L50.8677 14.3745C50.7873 14.6838 50.6388 15.0023 50.4224 15.3301C50.2121 15.6517 49.9368 15.9548 49.5967 16.2393C49.2565 16.5176 48.8545 16.7464 48.3906 16.9258C47.9329 17.099 47.4134 17.1855 46.832 17.1855C46.1764 17.1855 45.6043 17.0618 45.1157 16.8145C44.6333 16.5671 44.256 16.23 43.9839 15.8032C43.7179 15.3703 43.585 14.8817 43.585 14.3374C43.585 13.8426 43.6901 13.4004 43.9004 13.0107C44.1107 12.6149 44.4137 12.2809 44.8096 12.0088C45.2116 11.7305 45.694 11.5202 46.2568 11.3779C46.8258 11.2295 47.4629 11.1553 48.168 11.1553H50.478ZM55.5342 2.75V17H54.4302V2.75H55.5342ZM71.1108 13.6787C71.1108 13.3076 71.049 12.9767 70.9253 12.686C70.8016 12.3953 70.5975 12.1356 70.313 11.9067C70.0347 11.6717 69.6574 11.4552 69.1812 11.2573C68.7111 11.0532 68.1235 10.8522 67.4185 10.6543C66.7443 10.4626 66.1351 10.2523 65.5908 10.0234C65.0465 9.7946 64.5796 9.53174 64.1899 9.23486C63.8065 8.93799 63.5127 8.59163 63.3086 8.1958C63.1045 7.79378 63.0024 7.32682 63.0024 6.79492C63.0024 6.27539 63.1138 5.80225 63.3364 5.37549C63.5591 4.94873 63.8714 4.58073 64.2734 4.27148C64.6816 3.96224 65.161 3.72412 65.7114 3.55713C66.2681 3.39014 66.8773 3.30664 67.5391 3.30664C68.4854 3.30664 69.3018 3.486 69.9883 3.84473C70.681 4.20345 71.216 4.68896 71.5933 5.30127C71.9767 5.90739 72.1685 6.58773 72.1685 7.34229H71.0273C71.0273 6.75472 70.8882 6.2321 70.6099 5.77441C70.3377 5.31055 69.9419 4.94873 69.4224 4.68896C68.909 4.42301 68.2812 4.29004 67.5391 4.29004C66.7969 4.29004 66.1722 4.40446 65.665 4.6333C65.1641 4.85596 64.7837 5.15592 64.5239 5.5332C64.2703 5.9043 64.1436 6.31868 64.1436 6.77637C64.1436 7.09798 64.2054 7.39486 64.3291 7.66699C64.4528 7.93294 64.6538 8.18343 64.9321 8.41846C65.2166 8.6473 65.5908 8.86377 66.0547 9.06787C66.5186 9.26579 67.0907 9.45443 67.771 9.63379C68.4884 9.83171 69.1255 10.0513 69.6821 10.2925C70.2388 10.5337 70.7088 10.812 71.0923 11.1274C71.4757 11.4367 71.7664 11.7985 71.9644 12.2129C72.1623 12.6273 72.2612 13.1097 72.2612 13.6602C72.2612 14.2106 72.1437 14.7054 71.9087 15.1445C71.6799 15.5775 71.3551 15.9455 70.9346 16.2485C70.5202 16.5516 70.0285 16.7835 69.4595 16.9443C68.8966 17.1051 68.2812 17.1855 67.6133 17.1855C67.0133 17.1855 66.4165 17.1082 65.8228 16.9536C65.229 16.799 64.6847 16.5609 64.1899 16.2393C63.7013 15.9115 63.3086 15.4909 63.0117 14.9775C62.721 14.4642 62.5757 13.8519 62.5757 13.1406H63.7075C63.7075 13.7096 63.8219 14.189 64.0508 14.5786C64.2796 14.9683 64.5827 15.2837 64.96 15.5249C65.3434 15.7661 65.764 15.9424 66.2217 16.0537C66.6855 16.1589 67.1494 16.2114 67.6133 16.2114C68.3245 16.2114 68.9399 16.1063 69.4595 15.896C69.9852 15.6857 70.3903 15.3919 70.6748 15.0146C70.9655 14.6312 71.1108 14.1859 71.1108 13.6787ZM75.7031 6.96191V17H74.5991V6.96191H75.7031ZM74.4043 4.05811C74.4043 3.84782 74.4692 3.67155 74.5991 3.5293C74.7352 3.38086 74.9207 3.30664 75.1558 3.30664C75.3908 3.30664 75.5763 3.38086 75.7124 3.5293C75.8547 3.67155 75.9258 3.84782 75.9258 4.05811C75.9258 4.26221 75.8547 4.43848 75.7124 4.58691C75.5763 4.72917 75.3908 4.80029 75.1558 4.80029C74.9207 4.80029 74.7352 4.72917 74.5991 4.58691C74.4692 4.43848 74.4043 4.26221 74.4043 4.05811ZM82.5312 6.96191V7.87109H77.5029V6.96191H82.5312ZM79.3491 4.38281H80.4531V14.5601C80.4531 15.0239 80.515 15.3734 80.6387 15.6084C80.7624 15.8434 80.9232 16.0011 81.1211 16.0815C81.319 16.1619 81.5324 16.2021 81.7612 16.2021C81.9282 16.2021 82.089 16.1929 82.2437 16.1743C82.3983 16.1496 82.5374 16.1248 82.6611 16.1001L82.7075 17.0371C82.5715 17.0804 82.3952 17.1144 82.1787 17.1392C81.9622 17.1701 81.7458 17.1855 81.5293 17.1855C81.1025 17.1855 80.7253 17.1082 80.3975 16.9536C80.0697 16.7928 79.813 16.5207 79.6274 16.1372C79.4419 15.7476 79.3491 15.2188 79.3491 14.5508V4.38281ZM88.7378 17.1855C88.0822 17.1855 87.4792 17.0649 86.9287 16.8237C86.3844 16.5825 85.9082 16.2424 85.5 15.8032C85.098 15.3641 84.7856 14.8446 84.563 14.2446C84.3465 13.6385 84.2383 12.9767 84.2383 12.2593V11.8604C84.2383 11.0872 84.3527 10.3883 84.5815 9.76367C84.8104 9.139 85.1258 8.604 85.5278 8.15869C85.9299 7.71338 86.3875 7.37321 86.9009 7.13818C87.4204 6.89697 87.9647 6.77637 88.5337 6.77637C89.1707 6.77637 89.7367 6.89079 90.2314 7.11963C90.7262 7.34229 91.1406 7.66081 91.4746 8.0752C91.8148 8.4834 92.0715 8.96891 92.2446 9.53174C92.4178 10.0884 92.5044 10.7038 92.5044 11.3779V12.0552H84.9062V11.1089H91.4004V10.979C91.388 10.4162 91.2736 9.89046 91.0571 9.40186C90.8468 8.90706 90.5314 8.50505 90.1108 8.1958C89.6903 7.88656 89.1646 7.73193 88.5337 7.73193C88.0636 7.73193 87.6307 7.83089 87.2349 8.02881C86.8452 8.22673 86.5081 8.51123 86.2236 8.88232C85.9453 9.24723 85.7288 9.68327 85.5742 10.1904C85.4258 10.6914 85.3516 11.248 85.3516 11.8604V12.2593C85.3516 12.8159 85.432 13.3354 85.5928 13.8179C85.7598 14.2941 85.9948 14.7147 86.2979 15.0796C86.6071 15.4445 86.972 15.729 87.3926 15.9331C87.8132 16.1372 88.277 16.2393 88.7842 16.2393C89.3779 16.2393 89.9036 16.131 90.3613 15.9146C90.819 15.6919 91.2303 15.3424 91.5952 14.8662L92.291 15.4043C92.0745 15.7259 91.8024 16.0228 91.4746 16.2949C91.153 16.5671 90.7664 16.7835 90.3149 16.9443C89.8634 17.1051 89.3377 17.1855 88.7378 17.1855Z" fill="black"/>
</svg>
