<svg width="1037" height="31" viewBox="0 0 1037 31" fill="none" xmlns="http://www.w3.org/2000/svg">
<line x1="19" y1="3" x2="1019" y2="3" stroke="#D2D2D2" stroke-width="2"/>
<rect x="827" width="80" height="6" fill="#FB0223"/>
<rect x="1016" width="4" height="6" fill="#FB0223"/>
<rect x="19" width="4" height="6" fill="#FB0223"/>
<path d="M6.89941 14.168V27H4.57031V16.8838L1.48535 17.9033V16.0225L6.63574 14.168H6.89941ZM12.9551 25.1982H13.1221C13.8779 25.1982 14.5166 25.1016 15.0381 24.9082C15.5654 24.7148 15.9902 24.4424 16.3125 24.0908C16.6406 23.7334 16.8779 23.3086 17.0244 22.8164C17.1768 22.3184 17.2529 21.7676 17.2529 21.1641V18.8438C17.2529 18.3516 17.2031 17.9209 17.1035 17.5518C17.0039 17.1768 16.8633 16.8633 16.6816 16.6113C16.5059 16.3594 16.2979 16.1719 16.0576 16.0488C15.8174 15.9199 15.5596 15.8555 15.2842 15.8555C14.9795 15.8555 14.71 15.9258 14.4756 16.0664C14.2412 16.207 14.042 16.4004 13.8779 16.6465C13.7197 16.8867 13.5967 17.165 13.5088 17.4814C13.4268 17.7979 13.3857 18.1318 13.3857 18.4834C13.3857 18.8232 13.4238 19.1484 13.5 19.459C13.582 19.7695 13.7021 20.0449 13.8604 20.2852C14.0244 20.5254 14.2295 20.7158 14.4756 20.8564C14.7217 20.9912 15.0088 21.0586 15.3369 21.0586C15.6475 21.0586 15.9287 21 16.1807 20.8828C16.4385 20.7598 16.6611 20.5986 16.8486 20.3994C17.0361 20.1943 17.1797 19.9688 17.2793 19.7227C17.3848 19.4707 17.4434 19.2158 17.4551 18.958L18.2725 19.3096C18.2725 19.7373 18.1816 20.1592 18 20.5752C17.8242 20.9912 17.5752 21.3691 17.2529 21.709C16.9365 22.043 16.5674 22.3125 16.1455 22.5176C15.7236 22.7168 15.2695 22.8164 14.7832 22.8164C14.1797 22.8164 13.6465 22.7051 13.1836 22.4824C12.7207 22.2598 12.3311 21.9521 12.0146 21.5596C11.7041 21.1611 11.4697 20.7041 11.3115 20.1885C11.1533 19.667 11.0742 19.1104 11.0742 18.5186C11.0742 17.9033 11.1709 17.3262 11.3643 16.7871C11.5576 16.2422 11.8359 15.7646 12.1992 15.3545C12.5684 14.9385 13.0137 14.6133 13.5352 14.3789C14.0566 14.1387 14.6426 14.0186 15.293 14.0186C15.9668 14.0186 16.5674 14.1504 17.0947 14.4141C17.6221 14.6777 18.0703 15.0439 18.4395 15.5127C18.8086 15.9756 19.0898 16.5234 19.2832 17.1562C19.4824 17.7891 19.582 18.4805 19.582 19.2305V20.0479C19.582 20.8389 19.5029 21.5889 19.3447 22.2979C19.1865 23.0068 18.9434 23.6543 18.6152 24.2402C18.2871 24.8262 17.8682 25.333 17.3584 25.7607C16.8545 26.1885 16.251 26.5195 15.5479 26.7539C14.8506 26.9824 14.0537 27.0967 13.1572 27.0967H12.9551V25.1982ZM23.792 21.1113L21.9375 20.6631L22.6494 14.2031H29.6895V16.1279H24.5742L24.2402 19.1162C24.4219 19.0049 24.6855 18.8936 25.0312 18.7822C25.3828 18.665 25.7783 18.6064 26.2178 18.6064C26.8271 18.6064 27.3721 18.7061 27.8525 18.9053C28.333 19.0986 28.7402 19.3799 29.0742 19.749C29.4141 20.1182 29.6689 20.5693 29.8389 21.1025C30.0146 21.6299 30.1025 22.2275 30.1025 22.8955C30.1025 23.4814 30.0146 24.0322 29.8389 24.5479C29.6689 25.0576 29.4082 25.5117 29.0566 25.9102C28.7051 26.3027 28.2627 26.6133 27.7295 26.8418C27.1963 27.0645 26.5693 27.1758 25.8486 27.1758C25.3037 27.1758 24.7793 27.0967 24.2754 26.9385C23.7773 26.7744 23.3291 26.5371 22.9307 26.2266C22.5322 25.9102 22.2129 25.5234 21.9727 25.0664C21.7383 24.6094 21.6094 24.085 21.5859 23.4932H23.8799C23.9209 23.8857 24.0264 24.2197 24.1963 24.4951C24.3662 24.7705 24.5889 24.9814 24.8643 25.1279C25.1455 25.2744 25.4707 25.3477 25.8398 25.3477C26.1738 25.3477 26.4609 25.2861 26.7012 25.1631C26.9473 25.0342 27.1494 24.8555 27.3076 24.627C27.4658 24.3984 27.583 24.1289 27.6592 23.8184C27.7354 23.5078 27.7734 23.168 27.7734 22.7988C27.7734 22.4414 27.7295 22.1162 27.6416 21.8232C27.5537 21.5244 27.4189 21.2666 27.2373 21.0498C27.0557 20.833 26.8271 20.666 26.5518 20.5488C26.2822 20.4316 25.9658 20.373 25.6025 20.373C25.1162 20.373 24.7412 20.4463 24.4775 20.5928C24.2197 20.7393 23.9912 20.9121 23.792 21.1113ZM33.5215 25.1982H33.6885C34.4443 25.1982 35.083 25.1016 35.6045 24.9082C36.1318 24.7148 36.5566 24.4424 36.8789 24.0908C37.207 23.7334 37.4443 23.3086 37.5908 22.8164C37.7432 22.3184 37.8193 21.7676 37.8193 21.1641V18.8438C37.8193 18.3516 37.7695 17.9209 37.6699 17.5518C37.5703 17.1768 37.4297 16.8633 37.248 16.6113C37.0723 16.3594 36.8643 16.1719 36.624 16.0488C36.3838 15.9199 36.126 15.8555 35.8506 15.8555C35.5459 15.8555 35.2764 15.9258 35.042 16.0664C34.8076 16.207 34.6084 16.4004 34.4443 16.6465C34.2861 16.8867 34.1631 17.165 34.0752 17.4814C33.9932 17.7979 33.9521 18.1318 33.9521 18.4834C33.9521 18.8232 33.9902 19.1484 34.0664 19.459C34.1484 19.7695 34.2686 20.0449 34.4268 20.2852C34.5908 20.5254 34.7959 20.7158 35.042 20.8564C35.2881 20.9912 35.5752 21.0586 35.9033 21.0586C36.2139 21.0586 36.4951 21 36.7471 20.8828C37.0049 20.7598 37.2275 20.5986 37.415 20.3994C37.6025 20.1943 37.7461 19.9688 37.8457 19.7227C37.9512 19.4707 38.0098 19.2158 38.0215 18.958L38.8389 19.3096C38.8389 19.7373 38.748 20.1592 38.5664 20.5752C38.3906 20.9912 38.1416 21.3691 37.8193 21.709C37.5029 22.043 37.1338 22.3125 36.7119 22.5176C36.29 22.7168 35.8359 22.8164 35.3496 22.8164C34.7461 22.8164 34.2129 22.7051 33.75 22.4824C33.2871 22.2598 32.8975 21.9521 32.5811 21.5596C32.2705 21.1611 32.0361 20.7041 31.8779 20.1885C31.7197 19.667 31.6406 19.1104 31.6406 18.5186C31.6406 17.9033 31.7373 17.3262 31.9307 16.7871C32.124 16.2422 32.4023 15.7646 32.7656 15.3545C33.1348 14.9385 33.5801 14.6133 34.1016 14.3789C34.623 14.1387 35.209 14.0186 35.8594 14.0186C36.5332 14.0186 37.1338 14.1504 37.6611 14.4141C38.1885 14.6777 38.6367 15.0439 39.0059 15.5127C39.375 15.9756 39.6562 16.5234 39.8496 17.1562C40.0488 17.7891 40.1484 18.4805 40.1484 19.2305V20.0479C40.1484 20.8389 40.0693 21.5889 39.9111 22.2979C39.7529 23.0068 39.5098 23.6543 39.1816 24.2402C38.8535 24.8262 38.4346 25.333 37.9248 25.7607C37.4209 26.1885 36.8174 26.5195 36.1143 26.7539C35.417 26.9824 34.6201 27.0967 33.7236 27.0967H33.5215V25.1982Z" fill="#D2D2D2"/>
<path d="M1004.59 25.1719V27H995.923V25.4355L1000.08 20.9443C1000.51 20.4521 1000.86 20.0244 1001.11 19.6611C1001.36 19.2979 1001.54 18.9697 1001.64 18.6768C1001.76 18.3779 1001.81 18.0938 1001.81 17.8242C1001.81 17.4316 1001.74 17.0889 1001.6 16.7959C1001.46 16.4971 1001.25 16.2656 1000.99 16.1016C1000.72 15.9375 1000.4 15.8555 1000.01 15.8555C999.582 15.8555 999.216 15.9551 998.911 16.1543C998.612 16.3477 998.384 16.6172 998.226 16.9629C998.073 17.3086 997.997 17.7041 997.997 18.1494H995.668C995.668 17.3936 995.844 16.7051 996.195 16.084C996.547 15.457 997.051 14.9561 997.707 14.5811C998.363 14.2061 999.143 14.0186 1000.04 14.0186C1000.92 14.0186 1001.67 14.165 1002.28 14.458C1002.89 14.7451 1003.35 15.1553 1003.67 15.6885C1003.98 16.2217 1004.14 16.8574 1004.14 17.5957C1004.14 18.0059 1004.07 18.4102 1003.94 18.8086C1003.8 19.207 1003.61 19.6025 1003.37 19.9951C1003.13 20.3818 1002.84 20.7744 1002.51 21.1729C1002.17 21.5713 1001.8 21.9785 1001.39 22.3945L998.894 25.1719H1004.59ZM1014.68 19.5029V21.6562C1014.68 22.6406 1014.58 23.4814 1014.38 24.1787C1014.18 24.876 1013.89 25.4473 1013.52 25.8926C1013.14 26.332 1012.7 26.6572 1012.17 26.8682C1011.65 27.0732 1011.07 27.1758 1010.43 27.1758C1009.92 27.1758 1009.45 27.1113 1009.01 26.9824C1008.57 26.8477 1008.17 26.6426 1007.82 26.3672C1007.48 26.0859 1007.18 25.7285 1006.93 25.2949C1006.68 24.8613 1006.49 24.3428 1006.36 23.7393C1006.23 23.1357 1006.16 22.4414 1006.16 21.6562V19.5029C1006.16 18.5186 1006.26 17.6807 1006.46 16.9893C1006.67 16.2979 1006.96 15.7324 1007.33 15.293C1007.71 14.8535 1008.15 14.5342 1008.68 14.335C1009.2 14.1299 1009.78 14.0273 1010.42 14.0273C1010.93 14.0273 1011.41 14.0918 1011.84 14.2207C1012.28 14.3496 1012.67 14.5518 1013.02 14.8271C1013.37 15.0967 1013.67 15.4482 1013.91 15.8818C1014.16 16.3096 1014.35 16.8252 1014.48 17.4287C1014.61 18.0264 1014.68 18.7178 1014.68 19.5029ZM1012.36 21.9727V19.1777C1012.36 18.6855 1012.33 18.2578 1012.27 17.8945C1012.22 17.5254 1012.14 17.2119 1012.03 16.9541C1011.93 16.6963 1011.8 16.4883 1011.64 16.3301C1011.48 16.166 1011.3 16.0459 1011.09 15.9697C1010.89 15.8936 1010.66 15.8555 1010.42 15.8555C1010.11 15.8555 1009.84 15.917 1009.6 16.04C1009.36 16.1572 1009.16 16.3447 1008.99 16.6025C1008.83 16.8604 1008.7 17.2031 1008.61 17.6309C1008.53 18.0527 1008.49 18.5684 1008.49 19.1777V21.9727C1008.49 22.4648 1008.52 22.8955 1008.57 23.2646C1008.63 23.6338 1008.71 23.9502 1008.82 24.2139C1008.93 24.4775 1009.06 24.6943 1009.21 24.8643C1009.37 25.0283 1009.55 25.1514 1009.76 25.2334C1009.96 25.3096 1010.19 25.3477 1010.43 25.3477C1010.74 25.3477 1011.02 25.2861 1011.25 25.1631C1011.49 25.04 1011.69 24.8467 1011.86 24.583C1012.02 24.3135 1012.14 23.9648 1012.23 23.5371C1012.31 23.1035 1012.36 22.582 1012.36 21.9727ZM1022.47 14.168V27H1020.14V16.8838L1017.05 17.9033V16.0225L1022.2 14.168H1022.47ZM1028.52 25.1982H1028.69C1029.44 25.1982 1030.08 25.1016 1030.6 24.9082C1031.13 24.7148 1031.56 24.4424 1031.88 24.0908C1032.21 23.7334 1032.44 23.3086 1032.59 22.8164C1032.74 22.3184 1032.82 21.7676 1032.82 21.1641V18.8438C1032.82 18.3516 1032.77 17.9209 1032.67 17.5518C1032.57 17.1768 1032.43 16.8633 1032.25 16.6113C1032.07 16.3594 1031.86 16.1719 1031.62 16.0488C1031.38 15.9199 1031.13 15.8555 1030.85 15.8555C1030.55 15.8555 1030.28 15.9258 1030.04 16.0664C1029.81 16.207 1029.61 16.4004 1029.44 16.6465C1029.29 16.8867 1029.16 17.165 1029.08 17.4814C1028.99 17.7979 1028.95 18.1318 1028.95 18.4834C1028.95 18.8232 1028.99 19.1484 1029.07 19.459C1029.15 19.7695 1029.27 20.0449 1029.43 20.2852C1029.59 20.5254 1029.8 20.7158 1030.04 20.8564C1030.29 20.9912 1030.58 21.0586 1030.9 21.0586C1031.21 21.0586 1031.5 21 1031.75 20.8828C1032 20.7598 1032.23 20.5986 1032.42 20.3994C1032.6 20.1943 1032.75 19.9688 1032.85 19.7227C1032.95 19.4707 1033.01 19.2158 1033.02 18.958L1033.84 19.3096C1033.84 19.7373 1033.75 20.1592 1033.57 20.5752C1033.39 20.9912 1033.14 21.3691 1032.82 21.709C1032.5 22.043 1032.13 22.3125 1031.71 22.5176C1031.29 22.7168 1030.84 22.8164 1030.35 22.8164C1029.75 22.8164 1029.21 22.7051 1028.75 22.4824C1028.29 22.2598 1027.9 21.9521 1027.58 21.5596C1027.27 21.1611 1027.04 20.7041 1026.88 20.1885C1026.72 19.667 1026.64 19.1104 1026.64 18.5186C1026.64 17.9033 1026.74 17.3262 1026.93 16.7871C1027.12 16.2422 1027.4 15.7646 1027.77 15.3545C1028.13 14.9385 1028.58 14.6133 1029.1 14.3789C1029.62 14.1387 1030.21 14.0186 1030.86 14.0186C1031.53 14.0186 1032.13 14.1504 1032.66 14.4141C1033.19 14.6777 1033.64 15.0439 1034.01 15.5127C1034.38 15.9756 1034.66 16.5234 1034.85 17.1562C1035.05 17.7891 1035.15 18.4805 1035.15 19.2305V20.0479C1035.15 20.8389 1035.07 21.5889 1034.91 22.2979C1034.75 23.0068 1034.51 23.6543 1034.18 24.2402C1033.85 24.8262 1033.43 25.333 1032.92 25.7607C1032.42 26.1885 1031.82 26.5195 1031.11 26.7539C1030.42 26.9824 1029.62 27.0967 1028.72 27.0967H1028.52V25.1982Z" fill="#D2D2D2"/>
</svg>
