<svg width="110" height="22" viewBox="0 0 110 22" fill="none" xmlns="http://www.w3.org/2000/svg">
<path d="M109.354 10.8536C109.549 10.6583 109.549 10.3417 109.354 10.1464L106.172 6.96447C105.976 6.7692 105.66 6.7692 105.464 6.96447C105.269 7.15973 105.269 7.47631 105.464 7.67157L108.293 10.5L105.464 13.3284C105.269 13.5237 105.269 13.8403 105.464 14.0355C105.66 14.2308 105.976 14.2308 106.172 14.0355L109.354 10.8536ZM49 11H109V10H49V11Z" fill="#FB0223"/>
<path d="M5.9375 15.3208L10.1958 3.49219H11.439L6.41064 17H5.49219L5.9375 15.3208ZM1.54004 3.49219L5.77979 15.3208L6.24365 17H5.31592L0.296875 3.49219H1.54004ZM14.417 6.96191V17H13.313V6.96191H14.417ZM13.1182 4.05811C13.1182 3.84782 13.1831 3.67155 13.313 3.5293C13.4491 3.38086 13.6346 3.30664 13.8696 3.30664C14.1047 3.30664 14.2902 3.38086 14.4263 3.5293C14.5685 3.67155 14.6396 3.84782 14.6396 4.05811C14.6396 4.26221 14.5685 4.43848 14.4263 4.58691C14.2902 4.72917 14.1047 4.80029 13.8696 4.80029C13.6346 4.80029 13.4491 4.72917 13.313 4.58691C13.1831 4.43848 13.1182 4.26221 13.1182 4.05811ZM21.3286 17.1855C20.673 17.1855 20.07 17.0649 19.5195 16.8237C18.9753 16.5825 18.499 16.2424 18.0908 15.8032C17.6888 15.3641 17.3765 14.8446 17.1538 14.2446C16.9373 13.6385 16.8291 12.9767 16.8291 12.2593V11.8604C16.8291 11.0872 16.9435 10.3883 17.1724 9.76367C17.4012 9.139 17.7166 8.604 18.1187 8.15869C18.5207 7.71338 18.9784 7.37321 19.4917 7.13818C20.0112 6.89697 20.5555 6.77637 21.1245 6.77637C21.7616 6.77637 22.3275 6.89079 22.8223 7.11963C23.3171 7.34229 23.7314 7.66081 24.0654 8.0752C24.4056 8.4834 24.6623 8.96891 24.8354 9.53174C25.0086 10.0884 25.0952 10.7038 25.0952 11.3779V12.0552H17.4971V11.1089H23.9912V10.979C23.9788 10.4162 23.8644 9.89046 23.6479 9.40186C23.4377 8.90706 23.1222 8.50505 22.7017 8.1958C22.2811 7.88656 21.7554 7.73193 21.1245 7.73193C20.6545 7.73193 20.2215 7.83089 19.8257 8.02881C19.436 8.22673 19.099 8.51123 18.8145 8.88232C18.5361 9.24723 18.3197 9.68327 18.165 10.1904C18.0166 10.6914 17.9424 11.248 17.9424 11.8604V12.2593C17.9424 12.8159 18.0228 13.3354 18.1836 13.8179C18.3506 14.2941 18.5856 14.7147 18.8887 15.0796C19.1979 15.4445 19.5628 15.729 19.9834 15.9331C20.404 16.1372 20.8678 16.2393 21.375 16.2393C21.9688 16.2393 22.4945 16.131 22.9521 15.9146C23.4098 15.6919 23.8211 15.3424 24.186 14.8662L24.8818 15.4043C24.6654 15.7259 24.3932 16.0228 24.0654 16.2949C23.7438 16.5671 23.3573 16.7835 22.9058 16.9443C22.4543 17.1051 21.9285 17.1855 21.3286 17.1855ZM30.0679 14.6528L32.4893 6.96191H33.2686L32.8047 9.03076L30.272 17H29.4927L30.0679 14.6528ZM27.5537 6.96191L29.6782 14.6992L30.1328 17H29.3257L26.4126 6.96191H27.5537ZM36.2837 14.6714L38.3525 6.96191H39.4937L36.5806 17H35.7827L36.2837 14.6714ZM33.4263 6.96191L35.8105 14.5879L36.4136 17H35.6343L33.0459 9.02148L32.6099 6.96191H33.4263Z" fill="black"/>
</svg>
